<svg width="18" height="19" viewBox="0 0 18 19" fill="none" xmlns="http://www.w3.org/2000/svg">
<g clip-path="url(#clip0_3634_33)">
<path d="M11.423 7.99869C11.3177 7.93792 11.2303 7.8505 11.1696 7.74522C11.1088 7.63995 11.0768 7.52053 11.0768 7.39898V1.16826C11.0775 1.05789 11.1045 0.949258 11.1556 0.851438C11.2067 0.753619 11.2805 0.669442 11.3708 0.605929C11.461 0.542417 11.5652 0.501409 11.6745 0.486327C11.7839 0.471245 11.8952 0.482525 11.9993 0.519227C14.02 1.23439 15.7193 2.64688 16.7918 4.5028C17.8643 6.35871 18.2395 8.53631 17.8502 10.6442C17.83 10.7532 17.7839 10.8557 17.7159 10.9432C17.6478 11.0307 17.5597 11.1006 17.459 11.1469C17.3683 11.1894 17.2693 11.2112 17.1691 11.211C17.0476 11.211 16.9282 11.1791 16.823 11.1184L11.423 7.99869ZM12.4615 2.2171V6.99918L16.6049 9.39022C16.6153 9.25955 16.6153 9.12801 16.6153 8.99993C16.614 7.5966 16.2256 6.22082 15.4927 5.02407C14.7598 3.82733 13.7109 2.85602 12.4615 2.2171ZM6.03476e-06 8.99993C-0.00067796 10.9757 0.648818 12.8968 1.84828 14.4668C3.04775 16.0368 4.73053 17.1685 6.63698 17.6872C8.54344 18.206 10.5676 18.083 12.3972 17.3372C14.2268 16.5913 15.7602 15.2642 16.7607 13.5605C16.8073 13.4818 16.8379 13.3946 16.8506 13.304C16.8634 13.2135 16.8581 13.1212 16.835 13.0327C16.8119 12.9442 16.7715 12.8612 16.7161 12.7883C16.6607 12.7155 16.5914 12.6544 16.5123 12.6086L9.69224 8.63907V0.692303C9.69224 0.508693 9.6193 0.332603 9.48947 0.202771C9.35964 0.0729388 9.18355 0 8.99994 0C7.42939 0.000801351 5.88636 0.412382 4.52405 1.19388C3.16174 1.97538 2.02754 3.09961 1.23403 4.45497C1.22452 4.46881 1.21586 4.48266 1.20721 4.49737C1.19855 4.51208 1.1899 4.52939 1.18211 4.54497C0.40559 5.90116 -0.00198262 7.43717 6.03476e-06 8.99993Z" fill="#BE60AD"/>
</g>
<defs>
<clipPath id="clip0_3634_33">
<rect width="18" height="18.6922" fill="white" transform="matrix(-1 0 0 1 18 0)"/>
</clipPath>
</defs>
</svg>
