<svg width="244" height="118" fill="none" xmlns="http://www.w3.org/2000/svg"><g clip-path="url(#a)"><path fill-rule="evenodd" clip-rule="evenodd" d="M112 112.67c61.86 0 112-18.96 112-42.34V42.41h-27.8c-20.53-8.84-50.64-14.42-84.2-14.42S48.33 33.57 27.8 42.4H0v27.92c0 23.38 50.14 42.34 112 42.34Z" fill="url(#b)"/><path d="M112 84.75c61.86 0 112-18.96 112-42.34C224 19.02 173.86.07 112 .07S0 19.02 0 42.4s50.14 42.34 112 42.34Z" fill="url(#c)"/></g><defs><radialGradient id="b" cx="0" cy="0" r="1" gradientUnits="userSpaceOnUse" gradientTransform="matrix(-201.99875 -35.50879 16.85161 -95.86372 172.5 74)"><stop/><stop offset=".47"/><stop offset=".88" stop-color="#1F1F1F"/></radialGradient><radialGradient id="c" cx="0" cy="0" r="1" gradientUnits="userSpaceOnUse" gradientTransform="rotate(-174.81 112.95 15.92) scale(242.998 115.321)"><stop stop-color="#0D0D0D"/><stop offset=".86" stop-color="#232323"/></radialGradient><clipPath id="a"><path fill="#fff" d="M0 0h244v118H0z"/></clipPath></defs></svg>