<svg width="137" height="162" fill="none" xmlns="http://www.w3.org/2000/svg"><g clip-path="url(#a)"><path d="M80.43 71.76h18.54l7.87 6.18-26.4 25.26-26.41-25.26 16.57-5.62 9.83-.56Z" fill="url(#b)"/><path d="M80.43 103.2 64.7 84.1h31.46l-15.73 19.1Z" fill="url(#c)"/><path d="m96.16 84.11 10.68-6.17-26.4-25.27-26.41 25.27L64.7 84.1h31.46Z" fill="url(#d)"/><path d="m80.43 52.67 15.73 31.44H64.7l15.73-31.44Z" fill="url(#e)"/><g opacity=".15" filter="url(#f)"><path d="M35.92 65.58s-9.8 35.73 23.36 56.56c28.04 17.62 56.36-18.56 35.28-37.02C80.1 72.48 79.74 63.02 78.82 50.7c-1.46-19.57-31.44-28.65-42.9 14.89Z" fill="url(#g)"/></g></g><defs><linearGradient id="b" x1="95.04" y1="71.76" x2="95.04" y2="111.62" gradientUnits="userSpaceOnUse"><stop stop-color="#78CCFB"/><stop offset="1" stop-color="#00BD90"/></linearGradient><linearGradient id="c" x1="80.43" y1="111.62" x2="80.43" y2="84.11" gradientUnits="userSpaceOnUse"><stop stop-color="#17DAB0"/><stop offset="1" stop-color="#58E1FF"/></linearGradient><linearGradient id="d" x1="65.61" y1="94.78" x2="65.61" y2="44.25" gradientUnits="userSpaceOnUse"><stop stop-color="#86F8FF"/><stop offset="1" stop-color="#ECA2FF"/></linearGradient><linearGradient id="e" x1="80.19" y1="44.25" x2="80.19" y2="84.11" gradientUnits="userSpaceOnUse"><stop stop-color="#DEB5FF"/><stop offset="1" stop-color="#A7FAFF"/></linearGradient><radialGradient id="g" cx="0" cy="0" r="1" gradientUnits="userSpaceOnUse" gradientTransform="matrix(-2.9615 63.74434 -56.9203 -2.64447 79.7 54.93)"><stop stop-color="#DBBBFF"/><stop offset="1" stop-color="#0FF7EC"/></radialGradient><clipPath id="a"><path fill="#fff" transform="translate(.07 .15)" d="M0 0h136.16v161H0z"/></clipPath><filter id="f" x=".31" y=".16" width="135.83" height="160.94" filterUnits="userSpaceOnUse" color-interpolation-filters="sRGB"><feFlood flood-opacity="0" result="BackgroundImageFix"/><feBlend in="SourceGraphic" in2="BackgroundImageFix" result="shape"/><feGaussianBlur stdDeviation="17.13" result="effect1_foregroundBlur_9_223"/></filter></defs></svg>