<svg width="20" height="21" viewBox="0 0 20 21" fill="none" xmlns="http://www.w3.org/2000/svg">
<g clip-path="url(#clip0_3628_7)">
<path d="M19.5313 5.1836L15.0624 0.492196C14.9139 0.336153 14.7375 0.212371 14.5433 0.127919C14.3492 0.0434672 14.1411 0 13.931 0C13.7208 0 13.5128 0.0434672 13.3186 0.127919C13.1245 0.212371 12.9481 0.336153 12.7995 0.492196L0.46899 13.4397C0.319775 13.5952 0.201474 13.7802 0.120963 13.9841C0.0404513 14.188 -0.000663414 14.4066 8.09464e-06 14.6273V19.3197C8.09464e-06 19.7653 0.168573 20.1926 0.468619 20.5077C0.768666 20.8227 1.17562 20.9997 1.59995 20.9997H18.3993C18.6115 20.9997 18.8149 20.9112 18.965 20.7537C19.115 20.5962 19.1993 20.3825 19.1993 20.1597C19.1993 19.937 19.115 19.7233 18.965 19.5658C18.8149 19.4082 18.6115 19.3197 18.3993 19.3197H8.33169L19.5313 7.55975C19.6799 7.40374 19.7978 7.21852 19.8782 7.01467C19.9586 6.81082 20 6.59232 20 6.37167C20 6.15102 19.9586 5.93253 19.8782 5.72867C19.7978 5.52482 19.6799 5.3396 19.5313 5.1836ZM15.9994 8.8922L11.5316 4.19975L13.9315 1.67975L18.3993 6.3722L15.9994 8.8922Z" fill="white"/>
</g>
<defs>
<clipPath id="clip0_3628_7">
<rect width="20" height="21" fill="white"/>
</clipPath>
</defs>
</svg>
