<svg width="87" height="52" fill="none" xmlns="http://www.w3.org/2000/svg"><g clip-path="url(#a)"><g filter="url(#b)"><path d="M59.5 51.15a23.5 23.5 0 1 0 0-47 23.5 23.5 0 0 0 0 47Z" fill="url(#c)"/></g><path d="M85 31.15c0 2.2-2.16 4.36-6.14 6.1-3.99 1.76-9.57 3.01-15.88 3.57-6.3.56-12.98.4-18.99-.46-6-.87-11-2.38-14.2-4.3" stroke="url(#d)" stroke-width="2.5" stroke-linecap="round"/></g><defs><radialGradient id="c" cx="0" cy="0" r="1" gradientUnits="userSpaceOnUse" gradientTransform="rotate(-133.93 45.3 5.32) scale(46.2413 42.0234)"><stop offset=".62" stop-color="#1B0A22"/><stop offset=".8" stop-color="#A83CD2"/><stop offset=".9" stop-color="#FFDFEE"/></radialGradient><linearGradient id="d" x1="26.03" y1="41.15" x2="37.71" y2="5.59" gradientUnits="userSpaceOnUse"><stop offset=".19" stop-color="#F5BAFF"/><stop offset=".43" stop-color="#F5BAFF" stop-opacity="0"/></linearGradient><clipPath id="a"><path fill="#fff" transform="translate(0 .15)" d="M0 0h87v51H0z"/></clipPath><filter id="b" x="36" y="-2.13" width="55.37" height="53.28" filterUnits="userSpaceOnUse" color-interpolation-filters="sRGB"><feFlood flood-opacity="0" result="BackgroundImageFix"/><feBlend in="SourceGraphic" in2="BackgroundImageFix" result="shape"/><feColorMatrix in="SourceAlpha" values="0 0 0 0 0 0 0 0 0 0 0 0 0 0 0 0 0 0 127 0" result="hardAlpha"/><feOffset dx="8.37" dy="-6.28"/><feGaussianBlur stdDeviation="23.03"/><feComposite in2="hardAlpha" operator="arithmetic" k2="-1" k3="1"/><feColorMatrix values="0 0 0 0 0.917667 0 0 0 0 0.683333 0 0 0 0 1 0 0 0 0.3 0"/><feBlend in2="shape" result="effect1_innerShadow_9_298"/></filter></defs></svg>