<svg width="24" height="24" viewBox="0 0 24 24" fill="none" xmlns="http://www.w3.org/2000/svg">
<g clip-path="url(#clip0_3624_29)">
<path d="M23.7395 22.4817L18.1762 16.9196C19.7887 14.9838 20.5927 12.5008 20.4211 9.98722C20.2495 7.47366 19.1155 5.12301 17.2549 3.42429C15.3943 1.72556 12.9504 0.809545 10.4316 0.866788C7.91286 0.924031 5.51312 1.95013 3.73163 3.73163C1.95013 5.51312 0.924031 7.91286 0.866788 10.4316C0.809545 12.9504 1.72556 15.3943 3.42429 17.2549C5.12301 19.1155 7.47366 20.2495 9.98722 20.4211C12.5008 20.5927 14.9838 19.7887 16.9196 18.1762L22.4817 23.7395C22.5643 23.822 22.6623 23.8876 22.7702 23.9322C22.8781 23.9769 22.9938 23.9999 23.1106 23.9999C23.2274 23.9999 23.343 23.9769 23.4509 23.9322C23.5588 23.8876 23.6569 23.822 23.7395 23.7395C23.822 23.6569 23.8876 23.5588 23.9322 23.4509C23.9769 23.343 23.9999 23.2274 23.9999 23.1106C23.9999 22.9938 23.9769 22.8781 23.9322 22.7702C23.8876 22.6623 23.822 22.5643 23.7395 22.4817ZM2.66656 10.6664C2.66656 9.08417 3.13574 7.53749 4.01477 6.22192C4.89381 4.90636 6.14321 3.881 7.60499 3.27551C9.06677 2.67002 10.6753 2.5116 12.2271 2.82027C13.7789 3.12895 15.2043 3.89086 16.3231 5.00965C17.4419 6.12845 18.2038 7.55389 18.5125 9.1057C18.8212 10.6575 18.6628 12.266 18.0573 13.7278C17.4518 15.1896 16.4264 16.439 15.1109 17.318C13.7953 18.197 12.2486 18.6662 10.6664 18.6662C8.54543 18.6639 6.512 17.8203 5.01225 16.3205C3.5125 14.8208 2.66891 12.7874 2.66656 10.6664Z" fill="white"/>
</g>
<defs>
<clipPath id="clip0_3624_29">
<rect width="24" height="24" fill="white"/>
</clipPath>
</defs>
</svg>
