<svg width="88" height="73" fill="none" xmlns="http://www.w3.org/2000/svg"><g clip-path="url(#a)"><g filter="url(#b)"><path d="M44.09 51.78a20.75 20.75 0 1 0 0-41.5 20.75 20.75 0 0 0 0 41.5Z" fill="#fff"/><path d="M44.09 51.78a20.75 20.75 0 1 0 0-41.5 20.75 20.75 0 0 0 0 41.5Z" fill="url(#c)"/></g><path d="M39.16 54.95a16.87 16.87 0 1 1-33.74.52 16.87 16.87 0 0 1 33.74-.52Z" fill="url(#d)"/><path d="M86.76 47.82c-.16.46-.55.87-1.25 1.23a9.6 9.6 0 0 1-2.95.77c-2.5.31-5.96.2-10.15-.33-8.37-1.06-19.53-3.76-31.49-7.86-11.96-4.1-22.43-8.8-29.69-13.1-3.63-2.15-6.43-4.18-8.22-5.97-.9-.89-1.5-1.7-1.85-2.41-.35-.71-.4-1.28-.24-1.74.15-.45.54-.87 1.25-1.22.7-.35 1.7-.61 2.95-.77 2.5-.32 5.96-.2 10.15.33 8.37 1.06 19.52 3.76 31.48 7.86 11.96 4.1 22.43 8.8 29.7 13.1 3.63 2.15 6.43 4.18 8.22 5.96.89.9 1.5 1.7 1.85 2.42.34.71.4 1.28.24 1.73Z" stroke="url(#e)"/></g><defs><linearGradient id="c" x1="44.09" y1="10.28" x2="44.09" y2="51.78" gradientUnits="userSpaceOnUse"><stop stop-color="#FD91FF"/><stop offset=".34" stop-color="#A0A8FF"/><stop offset=".95" stop-color="#C9F2FF"/></linearGradient><linearGradient id="e" x1="45" y1="41.15" x2="49.5" y2="28.15" gradientUnits="userSpaceOnUse"><stop stop-color="#F3FCFF"/><stop offset=".48" stop-color="#654BAE"/><stop offset="1" stop-color="#303261" stop-opacity="0"/></linearGradient><radialGradient id="d" cx="0" cy="0" r="1" gradientUnits="userSpaceOnUse" gradientTransform="matrix(18.78914 -17.96784 23.15474 24.21313 15.96 60.36)"><stop offset=".58" stop-color="#2B152F"/><stop offset=".75" stop-color="#413686"/><stop offset=".96" stop-color="#5CB1E0"/></radialGradient><clipPath id="a"><path fill="#fff" transform="translate(0 .15)" d="M0 0h88v72H0z"/></clipPath><filter id="b" x="12.8" y=".15" width="62.59" height="62.59" filterUnits="userSpaceOnUse" color-interpolation-filters="sRGB"><feFlood flood-opacity="0" result="BackgroundImageFix"/><feColorMatrix in="SourceAlpha" values="0 0 0 0 0 0 0 0 0 0 0 0 0 0 0 0 0 0 127 0" result="hardAlpha"/><feOffset dy=".41"/><feGaussianBlur stdDeviation="5.27"/><feColorMatrix values="0 0 0 0 0.556863 0 0 0 0 0.627451 0 0 0 0 1 0 0 0 0.7 0"/><feBlend in2="BackgroundImageFix" result="effect1_dropShadow_9_274"/><feBlend in="SourceGraphic" in2="effect1_dropShadow_9_274" result="shape"/><feColorMatrix in="SourceAlpha" values="0 0 0 0 0 0 0 0 0 0 0 0 0 0 0 0 0 0 127 0" result="hardAlpha"/><feOffset dy="-.41"/><feGaussianBlur stdDeviation=".15"/><feComposite in2="hardAlpha" operator="arithmetic" k2="-1" k3="1"/><feColorMatrix values="0 0 0 0 0.556863 0 0 0 0 0.627451 0 0 0 0 1 0 0 0 0.16 0"/><feBlend in2="shape" result="effect2_innerShadow_9_274"/></filter></defs></svg>